<svg width="30" height="30" viewBox="0 0 30 30" fill="none" xmlns="http://www.w3.org/2000/svg">
<path d="M0.744141 7.80784L15.1174 0.559973L29.4907 7.80784V22.1922L15.1174 29.44L0.744141 22.1922V7.80784Z" stroke="#9F6B08"/>
<path d="M21.1951 15.3536C21.3904 15.1583 21.3904 14.8417 21.1951 14.6464L18.0131 11.4645C17.8179 11.2692 17.5013 11.2692 17.306 11.4645C17.1108 11.6597 17.1108 11.9763 17.306 12.1716L20.1345 15L17.306 17.8284C17.1108 18.0237 17.1108 18.3403 17.306 18.5355C17.5013 18.7308 17.8179 18.7308 18.0131 18.5355L21.1951 15.3536ZM9.39209 15.5H20.8416V14.5H9.39209V15.5Z" fill="#9F6B08"/>
</svg>
