<svg width="30" height="30" viewBox="0 0 30 30" fill="none" xmlns="http://www.w3.org/2000/svg">
<path d="M2.51011 7.78867L15.0005 0.57735L27.4909 7.78867V22.2113L15.0005 29.4227L2.51011 22.2113V7.78867Z" stroke="#9F6B08"/>
<path d="M3.64717 14.6464C3.45191 14.8417 3.45191 15.1583 3.64717 15.3536L6.82915 18.5355C7.02441 18.7308 7.34099 18.7308 7.53625 18.5355C7.73152 18.3403 7.73152 18.0237 7.53625 17.8284L4.70783 15L7.53625 12.1716C7.73152 11.9763 7.73152 11.6597 7.53625 11.4645C7.34099 11.2692 7.02441 11.2692 6.82915 11.4645L3.64717 14.6464ZM15.4502 14.5L4.00072 14.5V15.5L15.4502 15.5V14.5Z" fill="#9F6B08"/>
</svg>
